# xmcd
#
# Track frame offsets:
#	150
#	3007
#	13030
#	18965
#	32057
#	42447
#	53657
#	61000
#	78340
#	82275
#	95105
#	103310
#	118867
#	127437
#	141702
#	143367
#	155062
#	160035
#	161630
#	178557
#	181595
#	192740
#	212507
#	220675
#	235395
#	238752
#	254717
#	264012
#	281492
#	283660
#	288222
#	301400
#	315425
#	323150
#	327325
#
# Disc length: 4646 seconds
#
# Revision: 10
# Processed by: cddbd v1.5.2PL0 Copyright (c) Steve Scherf et al.
# Submitted via: EasyCDDAExtractor 5.0.6
#
DISCID=fd122423
DTITLE=Prince Paul - A Prince Among Thieves
DYEAR=1999
DGENRE=Hip-Hop
TTITLE0=Tariq's Dilemma (Intro)
TTITLE1=Pain (Feat. Sha and Breeze)
TTITLE2=How It All Started
TTITLE3=Steady Slobbin' (Feat. Breeze)
TTITLE4=Just Another Day
TTITLE5=What U Got (The Demo) (Feat. Breeze)
TTITLE6=The Hustles On
TTITLE7=MC Hustler (Feat. Horror City)
TTITLE8=The Call
TTITLE9=The Other Line (Feat. Breeze and Herione)
TTITLE10=Crazy Lou's Hideout
TTITLE11=Weapon World (Feat. Kool Keith)
TTITLE12=My Big Chance
TTITLE13=War Party (Feat. Horror City)
TTITLE14=Count Macula
TTITLE15=Macula's Theory (Feat. Big Daddy Kane)
TTITLE16=Mr. Large (Feat. Chubb Rock and Biz Markie)
TTITLE17=Can You Handle It
TTITLE18=Put The Next Man On (Feat. Sha, Breeze and Superstar)
TTITLE19=I Was In
TTITLE20=My First Day (Feat. Chris Rock)
TTITLE21=More Than U Know (Feat. De La Soul)
TTITLE22=Room 69 (Feat. Sweet Dee)
TTITLE23=Mood For Love (Feat. Newkirk)
TTITLE24=The Bust
TTITLE25=Men In Blue (Feat. Everlast)
TTITLE26=Central Booking
TTITLE27=Handle Your Time (Feat. Sadat X, Xzibit and King Creole)
TTITLE28=The Rev
TTITLE29=Sermon
TTITLE30=Showdown
TTITLE31=You Got Shot (Feat. Breeze and Sha)
TTITLE32=Every Beginning Must Have An Ending
TTITLE33=The New Joint (DJ's Delite)
TTITLE34=A Prince Among Thieves (Feat. Sha)
EXTD=
EXTT0=
EXTT1=
EXTT2=
EXTT3=
EXTT4=
EXTT5=
EXTT6=
EXTT7=
EXTT8=
EXTT9=
EXTT10=
EXTT11=
EXTT12=
EXTT13=
EXTT14=
EXTT15=
EXTT16=
EXTT17=
EXTT18=
EXTT19=
EXTT20=
EXTT21=
EXTT22=
EXTT23=
EXTT24=
EXTT25=
EXTT26=
EXTT27=
EXTT28=
EXTT29=
EXTT30=
EXTT31=
EXTT32=
EXTT33=
EXTT34=
PLAYORDER=
